<svg width="20" height="20" viewBox="0 0 20 20" fill="none" xmlns="http://www.w3.org/2000/svg">
<g clip-path="url(#clip0_3924_461)">
<path d="M19.375 5.0001C19.375 5.05635 19.3625 6.9626 18.9 9.3751C18.825 9.78135 18.7312 10.2001 18.625 10.6251C17.675 14.4938 15.5188 19.0001 10.625 19.3501C10.425 19.3688 10.2125 19.3751 10 19.3751C9.7875 19.3751 9.575 19.3688 9.375 19.3501C4.48125 19.0001 2.325 14.4938 1.375 10.6251C1.26875 10.2001 1.175 9.78135 1.1 9.3751C0.6375 6.9626 0.625 5.05635 0.625 5.0001C0.625 4.7501 0.775 4.5251 1.00625 4.4251L9.375 0.837598L9.75625 0.675098C9.9125 0.606348 10.0875 0.606348 10.2437 0.675098L10.625 0.837598L18.9937 4.4251C19.225 4.5251 19.375 4.7501 19.375 5.0001Z" fill="#7F2828"/>
<path d="M18.8996 9.3751C18.8246 9.78135 18.7309 10.2001 18.6246 10.6251H10.6246V19.3501C10.4246 19.3688 10.2121 19.3751 9.99961 19.3751C9.78711 19.3751 9.57461 19.3688 9.37461 19.3501V10.6251H1.37461C1.26836 10.2001 1.17461 9.78135 1.09961 9.3751H9.37461V0.837598L9.75586 0.675098C9.91211 0.606348 10.0871 0.606348 10.2434 0.675098L10.6246 0.837598V9.3751H18.8996Z" fill="white"/>
</g>
<defs>
<clipPath id="clip0_3924_461">
<rect width="20" height="20" fill="white"/>
</clipPath>
</defs>
</svg>
