<svg width="20" height="20" viewBox="0 0 20 20" fill="none" xmlns="http://www.w3.org/2000/svg">
<path d="M15.0003 17.4998V18.3332C15.4606 18.3332 15.8337 17.9601 15.8337 17.4998H15.0003ZM5.00033 17.4998H4.167C4.167 17.9601 4.5401 18.3332 5.00033 18.3332V17.4998ZM7.50033 4.99984C7.0401 4.99984 6.667 5.37294 6.667 5.83317C6.667 6.29341 7.0401 6.66651 7.50033 6.66651V4.99984ZM8.33366 6.66651C8.79391 6.66651 9.167 6.29341 9.167 5.83317C9.167 5.37294 8.79391 4.99984 8.33366 4.99984V6.66651ZM7.50033 7.49984C7.0401 7.49984 6.667 7.87294 6.667 8.33317C6.667 8.79342 7.0401 9.16651 7.50033 9.16651V7.49984ZM8.33366 9.16651C8.79391 9.16651 9.167 8.79342 9.167 8.33317C9.167 7.87294 8.79391 7.49984 8.33366 7.49984V9.16651ZM11.667 7.49984C11.2067 7.49984 10.8337 7.87294 10.8337 8.33317C10.8337 8.79342 11.2067 9.16651 11.667 9.16651V7.49984ZM12.5003 9.16651C12.9606 9.16651 13.3337 8.79342 13.3337 8.33317C13.3337 7.87294 12.9606 7.49984 12.5003 7.49984V9.16651ZM11.667 9.99984C11.2067 9.99984 10.8337 10.3729 10.8337 10.8332C10.8337 11.2934 11.2067 11.6665 11.667 11.6665V9.99984ZM12.5003 11.6665C12.9606 11.6665 13.3337 11.2934 13.3337 10.8332C13.3337 10.3729 12.9606 9.99984 12.5003 9.99984V11.6665ZM7.50033 9.99984C7.0401 9.99984 6.667 10.3729 6.667 10.8332C6.667 11.2934 7.0401 11.6665 7.50033 11.6665V9.99984ZM8.33366 11.6665C8.79391 11.6665 9.167 11.2934 9.167 10.8332C9.167 10.3729 8.79391 9.99984 8.33366 9.99984V11.6665ZM11.667 4.99984C11.2067 4.99984 10.8337 5.37294 10.8337 5.83317C10.8337 6.29341 11.2067 6.66651 11.667 6.66651V4.99984ZM12.5003 6.66651C12.9606 6.66651 13.3337 6.29341 13.3337 5.83317C13.3337 5.37294 12.9606 4.99984 12.5003 4.99984V6.66651ZM6.33366 3.33317H13.667V1.66651H6.33366V3.33317ZM14.167 3.83317V17.4998H15.8337V3.83317H14.167ZM15.0003 16.6665H5.00033V18.3332H15.0003V16.6665ZM5.83366 17.4998V3.83317H4.167V17.4998H5.83366ZM13.667 3.33317C13.9141 3.33317 14.0493 3.33382 14.1465 3.34176C14.2339 3.3489 14.2149 3.35759 14.167 3.33317L14.9237 1.84817C14.6975 1.73292 14.4727 1.69619 14.2822 1.68063C14.1014 1.66586 13.8866 1.66651 13.667 1.66651V3.33317ZM15.8337 3.83317C15.8337 3.61357 15.8343 3.39875 15.8196 3.21798C15.804 3.02749 15.7672 2.80271 15.652 2.57652L14.167 3.33317C14.1426 3.28525 14.1512 3.26627 14.1584 3.3537C14.1663 3.45086 14.167 3.58607 14.167 3.83317H15.8337ZM14.167 3.33317L15.652 2.57652C15.4922 2.26292 15.2372 2.00795 14.9237 1.84817L14.167 3.33317ZM6.33366 1.66651C6.11405 1.66651 5.89924 1.66586 5.71847 1.68063C5.52798 1.69619 5.3032 1.73292 5.07701 1.84817L5.83366 3.33317C5.78574 3.35759 5.76676 3.3489 5.85419 3.34176C5.95135 3.33382 6.08655 3.33317 6.33366 3.33317V1.66651ZM5.83366 3.83317C5.83366 3.58607 5.83431 3.45086 5.84225 3.3537C5.84939 3.26627 5.85808 3.28525 5.83366 3.33317L4.34865 2.57652C4.2334 2.80271 4.19668 3.02749 4.18112 3.21798C4.16635 3.39875 4.167 3.61357 4.167 3.83317H5.83366ZM5.07701 1.84817C4.7634 2.00795 4.50844 2.26292 4.34865 2.57652L5.83366 3.33317L5.07701 1.84817ZM7.50033 6.66651H8.33366V4.99984H7.50033V6.66651ZM7.50033 9.16651H8.33366V7.49984H7.50033V9.16651ZM11.667 9.16651H12.5003V7.49984H11.667V9.16651ZM11.667 11.6665H12.5003V9.99984H11.667V11.6665ZM7.50033 11.6665H8.33366V9.99984H7.50033V11.6665ZM11.667 6.66651H12.5003V4.99984H11.667V6.66651ZM10.8337 14.9998V17.4998H12.5003V14.9998H10.8337ZM9.167 17.4998V14.9998H7.50033V17.4998H9.167ZM10.0003 14.1665C10.4606 14.1665 10.8337 14.5396 10.8337 14.9998H12.5003C12.5003 13.6191 11.3811 12.4998 10.0003 12.4998V14.1665ZM10.0003 12.4998C8.61958 12.4998 7.50033 13.6191 7.50033 14.9998H9.167C9.167 14.5396 9.54008 14.1665 10.0003 14.1665V12.4998Z" fill="#7F2828"/>
</svg>
