<svg width="20" height="21" viewBox="0 0 20 21" fill="none" xmlns="http://www.w3.org/2000/svg">
<path fill-rule="evenodd" clip-rule="evenodd" d="M7.21996 1H12.7865C14.2122 1 13.4292 3.10773 12.852 4.3934L12.1951 5.8678L12.1064 6.06667C12.7286 6.03691 13.3439 6.20668 13.8599 6.55053C15.7901 8.29068 17.3566 10.3857 18.4713 12.7179C18.9056 13.5803 19.078 14.548 18.9675 15.5046C18.8348 17.9428 16.8495 19.8857 14.3741 20H5.6323C3.15623 19.8892 1.16798 17.9483 1.03254 15.5097C0.922033 14.5531 1.09435 13.5853 1.52877 12.723C2.64476 10.3885 4.21346 8.29157 6.14652 6.55053C6.66255 6.20668 7.27781 6.03691 7.89999 6.06667L7.79715 5.8374L7.15441 4.3934C6.57975 3.10773 5.79298 1 7.21996 1Z" stroke="#7F2828" stroke-linecap="round" stroke-linejoin="round"/>
</svg>
