<svg width="20" height="20" viewBox="0 0 20 20" fill="none" xmlns="http://www.w3.org/2000/svg">
<path d="M1.875 6.875H18.125" stroke="#7F2828" stroke-width="2" stroke-miterlimit="10" stroke-linecap="round" stroke-linejoin="round"/>
<path d="M4.375 5.625C4.1875 5.625 4.0625 5.5625 3.9375 5.4375C3.8125 5.3125 3.75 5.1875 3.75 5C3.75 4.8125 3.8125 4.6875 3.9375 4.5625L4 4.5C4.0625 4.5 4.0625 4.4375 4.125 4.4375C4.1875 4.375 4.1875 4.375 4.25 4.375C4.3125 4.375 4.4375 4.375 4.5 4.375C4.5625 4.375 4.5625 4.375 4.625 4.4375C4.6875 4.4375 4.6875 4.5 4.75 4.5L4.8125 4.5625C4.875 4.625 4.9375 4.6875 4.9375 4.75C5 4.8125 5 4.9375 5 5C5 5.0625 5 5.1875 4.9375 5.25C4.9375 5.3125 4.875 5.375 4.8125 5.4375C4.6875 5.5625 4.5625 5.625 4.375 5.625Z" fill="#7F2828"/>
<path d="M6.25 5.62509C6.0625 5.62509 5.9375 5.56259 5.8125 5.43759C5.6875 5.31259 5.625 5.18759 5.625 5.00009C5.625 4.93759 5.625 4.81259 5.6875 4.75009C5.75 4.68759 5.75 4.62509 5.8125 4.56259C5.875 4.50009 5.9375 4.43759 6 4.43759C6.25 4.31259 6.5 4.37509 6.6875 4.56259C6.75 4.62509 6.8125 4.68759 6.8125 4.75009C6.875 4.81259 6.875 4.93759 6.875 5.00009C6.875 5.18759 6.8125 5.31259 6.6875 5.43759C6.5625 5.56259 6.4375 5.62509 6.25 5.62509Z" fill="#7F2828"/>
<path d="M8.125 5.625C8.0625 5.625 7.9375 5.625 7.875 5.5625C7.8125 5.5 7.75 5.5 7.6875 5.4375C7.625 5.375 7.5625 5.3125 7.5625 5.25C7.5 5.1875 7.5 5.0625 7.5 5C7.5 4.9375 7.5 4.8125 7.5625 4.75C7.625 4.6875 7.625 4.625 7.6875 4.5625C7.9375 4.3125 8.3125 4.3125 8.5625 4.5625C8.625 4.625 8.6875 4.6875 8.6875 4.75C8.75 4.8125 8.75 4.9375 8.75 5C8.75 5.0625 8.75 5.1875 8.6875 5.25C8.625 5.3125 8.625 5.375 8.5625 5.4375C8.4375 5.5625 8.3125 5.625 8.125 5.625Z" fill="#7F2828"/>
<path d="M16.875 3.125H3.125C2.4375 3.125 1.875 3.6875 1.875 4.375V15.625C1.875 16.3125 2.4375 16.875 3.125 16.875H16.875C17.5625 16.875 18.125 16.3125 18.125 15.625V4.375C18.125 3.6875 17.5625 3.125 16.875 3.125Z" stroke="#7F2828" stroke-width="2" stroke-miterlimit="10" stroke-linecap="round" stroke-linejoin="round"/>
<path d="M6.25 6.875V16.875" stroke="#7F2828" stroke-width="2" stroke-miterlimit="10" stroke-linecap="round" stroke-linejoin="round"/>
<path d="M6.25 10.625H18.125" stroke="#7F2828" stroke-width="2" stroke-miterlimit="10" stroke-linecap="round" stroke-linejoin="round"/>
</svg>
