<svg width="20" height="20" viewBox="0 0 20 20" fill="none" xmlns="http://www.w3.org/2000/svg">
<path d="M3.66486 2.34536C4.48216 2.04278 5.40917 2.23689 6.03657 2.86413C6.91433 3.74189 6.91433 5.16542 6.03654 6.04321C5.15855 6.9212 3.73521 6.9212 2.85722 6.04321C2.22734 5.41333 2.03447 4.4812 2.34224 3.66169C2.41991 3.45487 2.31523 3.22427 2.10841 3.14659C1.90159 3.06892 1.67099 3.17361 1.59331 3.38042C1.17618 4.49114 1.43769 5.75505 2.29154 6.6089C3.48195 7.79931 5.41181 7.79931 6.60222 6.6089C7.79243 5.41868 7.79243 3.48862 6.60222 2.29841C5.75181 1.44821 4.49484 1.18503 3.3871 1.59513C3.17993 1.67183 3.07415 1.90194 3.15085 2.10911C3.22755 2.31628 3.45769 2.42206 3.66486 2.34536Z" fill="#7F2828"/>
<path d="M3.15066 2.30592L4.18346 3.33852C4.26805 3.42316 4.26805 3.5608 4.18344 3.64541L3.63805 4.1908C3.55326 4.27559 3.41592 4.27559 3.33113 4.1908L2.30391 3.16377C2.14768 3.00758 1.89441 3.0076 1.73822 3.16383C1.58203 3.32006 1.58205 3.57332 1.73828 3.72951L2.76549 4.7565C3.16268 5.15369 3.80654 5.15369 4.20375 4.75648L4.74914 4.21109C5.14613 3.8141 5.14613 3.17014 4.74926 2.77293L3.71631 1.74018C3.56008 1.58398 3.30682 1.584 3.15063 1.74023C2.99443 1.89646 2.99443 2.14973 3.15066 2.30592ZM16.3345 17.6683C15.5172 17.9709 14.5902 17.7768 13.9628 17.1495C13.085 16.2718 13.085 14.8482 13.9628 13.9704C14.8408 13.0924 16.2641 13.0924 17.1421 13.9704C17.772 14.6003 17.9649 15.5324 17.6571 16.352C17.5794 16.5588 17.6841 16.7894 17.8909 16.8671C18.0978 16.9447 18.3284 16.84 18.406 16.6332C18.8232 15.5225 18.5617 14.2586 17.7078 13.4047C16.5174 12.2143 14.5875 12.2143 13.3971 13.4047C12.2069 14.595 12.2069 16.525 13.3971 17.7152C14.2475 18.5654 15.5045 18.8286 16.6122 18.4185C16.8194 18.3418 16.9252 18.1117 16.8485 17.9045C16.7718 17.6974 16.5417 17.5916 16.3345 17.6683H16.3345Z" fill="#7F2828"/>
<path d="M16.8489 17.7085L15.8163 16.6759C15.7316 16.5911 15.7316 16.4537 15.8162 16.3691L16.3616 15.8235C16.4463 15.7388 16.5836 15.7388 16.6684 15.8236L17.6957 16.8506C17.8519 17.0068 18.1051 17.0068 18.2613 16.8506C18.4175 16.6943 18.4175 16.4411 18.2613 16.2849L17.2341 15.2579C16.8369 14.8607 16.193 14.8607 15.7958 15.2579L15.2506 15.8034C14.8534 16.2002 14.8534 16.8443 15.2506 17.2416L16.2832 18.2742C16.4394 18.4304 16.6927 18.4304 16.8489 18.2742C17.0051 18.118 17.0051 17.8647 16.8489 17.7085L16.8489 17.7085ZM13.1723 14.418L5.5305 6.7762C5.37429 6.61999 5.12103 6.61999 4.96481 6.7762C4.8086 6.93241 4.8086 7.18567 4.96481 7.34189L12.6066 14.9837C12.7628 15.1399 13.0161 15.1399 13.1723 14.9837C13.3285 14.8275 13.3285 14.5742 13.1723 14.418ZM6.71329 5.45456L14.5331 13.2744C14.6893 13.4306 14.9426 13.4306 15.0988 13.2744C15.255 13.1182 15.255 12.8649 15.0988 12.7087L7.27897 4.88888C7.12276 4.73267 6.8695 4.73267 6.71329 4.88888C6.55708 5.04509 6.55708 5.29835 6.71329 5.45456ZM11.7117 7.65222L15.1635 4.20042C15.3197 4.04421 15.3197 3.79095 15.1635 3.63474C15.0073 3.47853 14.754 3.47853 14.5978 3.63474L11.146 7.08653C10.9898 7.24274 10.9898 7.49601 11.146 7.65222C11.3022 7.80843 11.5555 7.80843 11.7117 7.65222ZM15.899 4.72421L12.3336 8.25501C12.1767 8.41046 12.1754 8.66372 12.3309 8.82069C12.4863 8.97767 12.7396 8.9789 12.8966 8.82345L16.462 5.29265C16.6189 5.1372 16.6202 4.88394 16.4647 4.72696C16.3093 4.56999 16.056 4.56876 15.899 4.72421Z" fill="#7F2828"/>
<path d="M18.4705 2.55914C18.5236 2.61221 18.5606 2.67914 18.5774 2.75227C18.5943 2.82541 18.5902 2.90181 18.5657 2.97273L18.0149 4.56514C17.9951 4.62238 17.9625 4.67438 17.9197 4.71722C17.8769 4.76005 17.8249 4.7926 17.7676 4.8124L16.175 5.3634C16.1041 5.38794 16.0277 5.39203 15.9545 5.37519C15.8814 5.35836 15.8144 5.32128 15.7614 5.2682L14.72 4.2266C14.6669 4.17353 14.6298 4.10661 14.613 4.03347C14.5962 3.96034 14.6003 3.88395 14.6248 3.81303L15.1756 2.22062C15.1954 2.16338 15.2279 2.11139 15.2708 2.06855C15.3136 2.02572 15.3656 1.99318 15.4228 1.97338L17.0152 1.42238C17.0862 1.39784 17.1626 1.39375 17.2357 1.41058C17.3089 1.42741 17.3758 1.46448 17.4289 1.51756L18.4705 2.55916L18.4705 2.55914ZM17.0402 2.26027L15.8681 2.66584L15.4627 3.83799L16.1501 4.52551L17.3224 4.11992L17.7278 2.94781L17.0403 2.26027H17.0402ZM8.81437 12.8964L4.07677 17.634C3.93035 17.7804 3.75447 17.7994 3.69134 17.7363L2.23546 16.2804C2.17252 16.2174 2.19144 16.0416 2.33796 15.895L7.06627 11.1669C7.22248 11.0107 7.22248 10.7574 7.06628 10.6012C6.91009 10.445 6.65681 10.445 6.5006 10.6012L1.7722 15.3294C1.33705 15.7648 1.26433 16.4403 1.66968 16.846L3.1258 18.3021C3.53162 18.7075 4.20734 18.6348 4.64248 18.1997L9.38007 13.4621C9.53628 13.3059 9.53628 13.0526 9.38007 12.8964C9.22386 12.7402 8.9706 12.7402 8.81439 12.8964L8.81437 12.8964Z" fill="#7F2828"/>
</svg>
