<svg width="20" height="20" viewBox="0 0 20 20" fill="none" xmlns="http://www.w3.org/2000/svg">
<path d="M18.3337 18.3335H1.66699" stroke="#FF099C" stroke-linecap="round"/>
<path d="M1.66699 9.16673L5.05279 6.45813M18.3337 9.16673L11.5621 3.74949C10.649 3.01905 9.35166 3.01905 8.43858 3.74949L7.78698 4.27078" stroke="#FF099C" stroke-linecap="round"/>
<path d="M12.917 4.58333V2.91667C12.917 2.68655 13.1036 2.5 13.3337 2.5H15.417C15.6471 2.5 15.8337 2.68655 15.8337 2.91667V7.08333" stroke="#FF099C" stroke-linecap="round"/>
<path d="M3.33301 18.3332V7.9165" stroke="#FF099C" stroke-linecap="round"/>
<path d="M16.667 7.9165V11.2498M16.667 18.3332V14.5832" stroke="#FF099C" stroke-linecap="round"/>
<path d="M12.5 18.3332V14.1665C12.5 12.988 12.5 12.3988 12.1339 12.0326C11.7678 11.6665 11.1785 11.6665 10 11.6665C8.8215 11.6665 8.23223 11.6665 7.86612 12.0326M7.5 18.3332V14.1665" stroke="#FF099C" stroke-linecap="round" stroke-linejoin="round"/>
<path d="M11.6663 7.91667C11.6663 8.83717 10.9202 9.58333 9.99967 9.58333C9.07917 9.58333 8.33301 8.83717 8.33301 7.91667C8.33301 6.99619 9.07917 6.25 9.99967 6.25C10.9202 6.25 11.6663 6.99619 11.6663 7.91667Z" stroke="#FF099C"/>
</svg>
