<svg width="14" height="14" viewBox="0 0 14 14" fill="none" xmlns="http://www.w3.org/2000/svg">
<path d="M10.5003 12.2498V12.8332C10.8225 12.8332 11.0837 12.572 11.0837 12.2498H10.5003ZM3.50033 12.2498H2.917C2.917 12.572 3.17817 12.8332 3.50033 12.8332V12.2498ZM5.25033 3.49984C4.92816 3.49984 4.66699 3.76101 4.66699 4.08317C4.66699 4.40534 4.92816 4.66651 5.25033 4.66651V3.49984ZM5.83366 4.66651C6.15584 4.66651 6.41699 4.40534 6.41699 4.08317C6.41699 3.76101 6.15584 3.49984 5.83366 3.49984V4.66651ZM5.25033 5.24984C4.92816 5.24984 4.66699 5.51101 4.66699 5.83317C4.66699 6.15535 4.92816 6.41651 5.25033 6.41651V5.24984ZM5.83366 6.41651C6.15584 6.41651 6.41699 6.15535 6.41699 5.83317C6.41699 5.51101 6.15584 5.24984 5.83366 5.24984V6.41651ZM8.16699 5.24984C7.84482 5.24984 7.58366 5.51101 7.58366 5.83317C7.58366 6.15535 7.84482 6.41651 8.16699 6.41651V5.24984ZM8.75033 6.41651C9.0725 6.41651 9.33366 6.15535 9.33366 5.83317C9.33366 5.51101 9.0725 5.24984 8.75033 5.24984V6.41651ZM8.16699 6.99984C7.84482 6.99984 7.58366 7.261 7.58366 7.58317C7.58366 7.90535 7.84482 8.16651 8.16699 8.16651V6.99984ZM8.75033 8.16651C9.0725 8.16651 9.33366 7.90535 9.33366 7.58317C9.33366 7.261 9.0725 6.99984 8.75033 6.99984V8.16651ZM5.25033 6.99984C4.92816 6.99984 4.66699 7.261 4.66699 7.58317C4.66699 7.90535 4.92816 8.16651 5.25033 8.16651V6.99984ZM5.83366 8.16651C6.15584 8.16651 6.41699 7.90535 6.41699 7.58317C6.41699 7.261 6.15584 6.99984 5.83366 6.99984V8.16651ZM8.16699 3.49984C7.84482 3.49984 7.58366 3.76101 7.58366 4.08317C7.58366 4.40534 7.84482 4.66651 8.16699 4.66651V3.49984ZM8.75033 4.66651C9.0725 4.66651 9.33366 4.40534 9.33366 4.08317C9.33366 3.76101 9.0725 3.49984 8.75033 3.49984V4.66651ZM4.43366 2.33317H9.56699V1.16651H4.43366V2.33317ZM9.91699 2.68317V12.2498H11.0837V2.68317H9.91699ZM10.5003 11.6665H3.50033V12.8332H10.5003V11.6665ZM4.08366 12.2498V2.68317H2.917V12.2498H4.08366ZM9.56699 2.33317C9.73995 2.33317 9.83463 2.33363 9.90264 2.33918C9.96384 2.34418 9.95054 2.35027 9.91699 2.33317L10.4467 1.29367C10.2883 1.21299 10.131 1.18729 9.99761 1.17639C9.87109 1.16605 9.7207 1.16651 9.56699 1.16651V2.33317ZM11.0837 2.68317C11.0837 2.52945 11.0841 2.37908 11.0738 2.25254C11.0629 2.1192 11.0372 1.96185 10.9565 1.80352L9.91699 2.33317C9.8999 2.29963 9.90597 2.28634 9.91099 2.34754C9.91653 2.41555 9.91699 2.5102 9.91699 2.68317H11.0837ZM9.91699 2.33317L10.9565 1.80352C10.8447 1.584 10.6662 1.40552 10.4467 1.29367L9.91699 2.33317ZM4.43366 1.16651C4.27994 1.16651 4.12956 1.16605 4.00303 1.17639C3.86968 1.18729 3.71234 1.21299 3.55401 1.29367L4.08366 2.33317C4.05011 2.35027 4.03683 2.34418 4.09803 2.33918C4.16604 2.33363 4.26069 2.33317 4.43366 2.33317V1.16651ZM4.08366 2.68317C4.08366 2.5102 4.08412 2.41555 4.08967 2.34754C4.09467 2.28634 4.10075 2.29963 4.08366 2.33317L3.04416 1.80352C2.96348 1.96185 2.93777 2.1192 2.92688 2.25254C2.91654 2.37908 2.917 2.52945 2.917 2.68317H4.08366ZM3.55401 1.29367C3.33448 1.40552 3.156 1.58399 3.04416 1.80352L4.08366 2.33317L3.55401 1.29367ZM5.25033 4.66651H5.83366V3.49984H5.25033V4.66651ZM5.25033 6.41651H5.83366V5.24984H5.25033V6.41651ZM8.16699 6.41651H8.75033V5.24984H8.16699V6.41651ZM8.16699 8.16651H8.75033V6.99984H8.16699V8.16651ZM5.25033 8.16651H5.83366V6.99984H5.25033V8.16651ZM8.16699 4.66651H8.75033V3.49984H8.16699V4.66651ZM7.58366 10.4998V12.2498H8.75033V10.4998H7.58366ZM6.41699 12.2498V10.4998H5.25033V12.2498H6.41699ZM7.00033 9.91651C7.3225 9.91651 7.58366 10.1777 7.58366 10.4998H8.75033C8.75033 9.53331 7.96685 8.74984 7.00033 8.74984V9.91651ZM7.00033 8.74984C6.0338 8.74984 5.25033 9.53331 5.25033 10.4998H6.41699C6.41699 10.1777 6.67815 9.91651 7.00033 9.91651V8.74984Z" fill="#FF9E4E"/>
</svg>
