<svg width="14" height="14" viewBox="0 0 14 14" fill="none" xmlns="http://www.w3.org/2000/svg">
<path d="M12.8337 12.8335H1.16699" stroke="#10F5D4" stroke-linecap="round"/>
<path d="M1.16699 6.41676L3.53705 4.52074M12.8337 6.41676L8.09355 2.62469C7.45439 2.11339 6.54626 2.11339 5.9071 2.62469L5.45098 2.98959" stroke="#10F5D4" stroke-linecap="round"/>
<path d="M9.04199 3.20833V2.04167C9.04199 1.88058 9.1726 1.75 9.33366 1.75H10.792C10.9531 1.75 11.0837 1.88058 11.0837 2.04167V4.95833" stroke="#10F5D4" stroke-linecap="round"/>
<path d="M2.33301 12.8332V5.5415" stroke="#10F5D4" stroke-linecap="round"/>
<path d="M11.667 5.5415V7.87484M11.667 12.8332V10.2082" stroke="#10F5D4" stroke-linecap="round"/>
<path d="M8.75 12.8332V9.9165C8.75 9.09155 8.75 8.67908 8.49374 8.42276C8.23743 8.1665 7.82495 8.1665 7 8.1665C6.17505 8.1665 5.76256 8.1665 5.50628 8.42276M5.25 12.8332V9.9165" stroke="#10F5D4" stroke-linecap="round" stroke-linejoin="round"/>
<path d="M8.16634 5.54167C8.16634 6.18602 7.64402 6.70833 6.99967 6.70833C6.35532 6.70833 5.83301 6.18602 5.83301 5.54167C5.83301 4.89733 6.35532 4.375 6.99967 4.375C7.64402 4.375 8.16634 4.89733 8.16634 5.54167Z" stroke="#10F5D4"/>
</svg>
