<svg width="20" height="20" viewBox="0 0 20 20" fill="none" xmlns="http://www.w3.org/2000/svg">
<path d="M18.3346 9.99967C18.3346 6.85697 18.3346 5.28563 17.3583 4.30932C16.3821 3.33301 14.8106 3.33301 11.668 3.33301H8.33464C5.19194 3.33301 3.62059 3.33301 2.64428 4.30932C1.66797 5.28563 1.66797 6.85697 1.66797 9.99967C1.66797 13.1423 1.66797 14.7138 2.64428 15.69C3.62059 16.6663 5.19194 16.6663 8.33464 16.6663H11.668C14.8106 16.6663 16.3821 16.6663 17.3583 15.69C17.9026 15.1457 18.1435 14.4164 18.2501 13.333" stroke="#7F2828" stroke-linecap="round"/>
<path d="M8.33333 13.333H5" stroke="#7F2828" stroke-linecap="round"/>
<path d="M11.668 13.333H10.418" stroke="#7F2828" stroke-linecap="round"/>
<path d="M1.66797 8.33301H5.83464M18.3346 8.33301H9.16797" stroke="#7F2828" stroke-linecap="round"/>
</svg>
