<svg width="56" height="56" viewBox="0 0 56 56" fill="none" xmlns="http://www.w3.org/2000/svg">
<g clip-path="url(#clip0_3997_6593)">
<path d="M39.8163 38.832C37.6345 38.0163 34.4529 35.6341 34.4529 34.1511C34.4529 33.1686 34.4529 31.9412 34.4529 30.2588C35.7138 28.8559 36.6726 26.008 37.2424 22.7797C38.5715 22.3052 39.331 21.5459 40.2799 18.2234C41.2884 14.6842 38.7611 14.8045 38.7611 14.8045C40.8053 8.03717 38.1143 1.67712 33.6068 2.14404C30.4977 -3.29517 20.0841 3.38654 16.8212 2.92083C16.8212 4.78622 17.598 6.1848 17.598 6.1848C16.4638 8.33839 16.9013 12.6326 17.2198 14.8045C17.0356 14.8012 14.75 14.8251 15.7195 18.2234C16.6684 21.5457 17.4278 22.3052 18.757 22.7797C19.3258 26.008 20.2845 28.8559 21.5465 30.2588C21.5465 31.9412 21.5465 33.1686 21.5465 34.1511C21.5465 35.6341 18.1667 38.1323 16.1832 38.832C12.0851 40.275 2.01479 44.425 2.66481 52.1988C2.82067 54.0643 13.0784 56.0001 27.9997 56.0001C42.92 56.0001 53.1788 54.0643 53.3348 52.1988C53.9847 44.4175 43.8885 40.3552 39.8163 38.832Z" fill="black"/>
</g>
<defs>
<clipPath id="clip0_3997_6593">
<rect width="56" height="56" fill="white"/>
</clipPath>
</defs>
</svg>
