<svg width="20" height="20" viewBox="0 0 20 20" fill="none" xmlns="http://www.w3.org/2000/svg">
<path d="M3.56523 2.85527H14.9937V7.85527H16.4225V1.42676H2.13672V18.5695H7.13672V17.141H3.56523V2.85527Z" fill="#7F2828"/>
<path d="M4.99219 4.28418H13.5637V5.7127H4.99219V4.28418ZM4.99219 7.14141H12.135V8.56992H4.99219V7.14141ZM4.99219 9.99844H9.27793V11.427H4.99219V9.99844ZM15.1396 8.9502L8.57363 15.5162L8.56348 18.5365L11.6041 18.5467L18.1701 11.9807L15.1396 8.9502ZM16.1498 11.9807L15.6531 12.4773L14.6428 11.4672L15.1396 10.9703L16.1498 11.9807ZM14.6432 13.4875L12.1193 16.0113L11.1092 15.0012L13.633 12.4773L14.6432 13.4875ZM9.99687 17.1127L10.0002 16.11L10.099 16.0111L11.1092 17.0213L11.0145 17.116L9.99687 17.1127Z" fill="#7F2828"/>
</svg>
