<svg width="20" height="20" viewBox="0 0 20 20" fill="none" xmlns="http://www.w3.org/2000/svg">
<path d="M10.0013 10H9.58464C8.41422 10 7.82906 10 7.40869 10.2809C7.2267 10.4025 7.07045 10.5587 6.94885 10.7407C6.66797 11.1611 6.66797 11.7462 6.66797 12.9167C6.66797 14.0871 6.66797 14.6722 6.94885 15.0926C7.07045 15.2746 7.2267 15.4308 7.40869 15.5524C7.82906 15.8333 8.41422 15.8333 9.58464 15.8333H10.0013M10.0013 10H10.418C11.5884 10 12.1736 10 12.5939 10.2809C12.7759 10.4025 12.9321 10.5587 13.0537 10.7407C13.3346 11.1611 13.3346 11.7462 13.3346 12.9167M10.0013 10V12.9167M10.0013 15.8333H10.418C11.5884 15.8333 12.1736 15.8333 12.5939 15.5524C12.7759 15.4308 12.9321 15.2746 13.0537 15.0926C13.3346 14.6722 13.3346 14.0871 13.3346 12.9167M10.0013 15.8333V12.9167M13.3346 12.9167H10.0013" stroke="#7F2828"/>
<path d="M1.66797 10.0003C1.66797 6.07195 1.66797 4.10777 2.88836 2.88738C4.10874 1.66699 6.07293 1.66699 10.0013 1.66699C10.2859 1.66699 10.4281 1.66699 10.5728 1.67962C11.2472 1.7385 11.9075 2.01199 12.4261 2.44725C12.5372 2.54062 12.6403 2.64371 12.8465 2.84986L17.1518 7.15514C17.358 7.3613 17.461 7.46438 17.5544 7.57561C17.9896 8.09413 18.2631 8.75441 18.322 9.42883C18.3346 9.57349 18.3346 9.71574 18.3346 10.0003C18.3346 13.9287 18.3346 15.8929 17.1142 17.1132C15.8939 18.3337 13.9296 18.3337 10.0013 18.3337C6.07293 18.3337 4.10874 18.3337 2.88836 17.1132C2.07691 16.3018 1.805 15.1615 1.71389 13.3337" stroke="#7F2828" stroke-linecap="round"/>
</svg>
