<svg width="223" height="14" viewBox="0 0 223 14" fill="none" xmlns="http://www.w3.org/2000/svg">
<path d="M3.5 6.5H215.5" stroke="#7F2828"/>
<circle cx="38" cy="7" r="6.5" fill="#7F2828" stroke="#7F2828"/>
<path d="M7.5 6.5C7.5 8.433 5.933 10 4 10C2.067 10 0.5 8.433 0.5 6.5C0.5 4.567 2.067 3 4 3C5.933 3 7.5 4.567 7.5 6.5Z" fill="#7F2828" stroke="#7F2828"/>
<path d="M222.47 6.5C222.47 8.433 220.903 10 218.97 10C217.037 10 215.47 8.433 215.47 6.5C215.47 4.567 217.037 3 218.97 3C220.903 3 222.47 4.567 222.47 6.5Z" fill="#7F2828" stroke="#7F2828"/>
<circle cx="82" cy="7" r="6.5" fill="#7F2828" stroke="#7F2828"/>
<circle cx="126" cy="7" r="6.5" fill="white" stroke="#7F2828"/>
<circle cx="170" cy="7" r="6.5" fill="white" stroke="#7F2828"/>
<path d="M37.216 5.4V4.626H38.662V9H37.798V5.4H37.216Z" fill="white"/>
<path d="M80.582 8.052C80.966 7.732 81.272 7.466 81.5 7.254C81.728 7.038 81.918 6.814 82.07 6.582C82.222 6.35 82.298 6.122 82.298 5.898C82.298 5.694 82.25 5.534 82.154 5.418C82.058 5.302 81.91 5.244 81.71 5.244C81.51 5.244 81.356 5.312 81.248 5.448C81.14 5.58 81.084 5.762 81.08 5.994H80.264C80.28 5.514 80.422 5.15 80.69 4.902C80.962 4.654 81.306 4.53 81.722 4.53C82.178 4.53 82.528 4.652 82.772 4.896C83.016 5.136 83.138 5.454 83.138 5.85C83.138 6.162 83.054 6.46 82.886 6.744C82.718 7.028 82.526 7.276 82.31 7.488C82.094 7.696 81.812 7.948 81.464 8.244H83.234V8.94H80.27V8.316L80.582 8.052Z" fill="white"/>
<path d="M124.33 5.778C124.35 5.378 124.49 5.07 124.75 4.854C125.014 4.634 125.36 4.524 125.788 4.524C126.08 4.524 126.33 4.576 126.538 4.68C126.746 4.78 126.902 4.918 127.006 5.094C127.114 5.266 127.168 5.462 127.168 5.682C127.168 5.934 127.102 6.148 126.97 6.324C126.842 6.496 126.688 6.612 126.508 6.672V6.696C126.74 6.768 126.92 6.896 127.048 7.08C127.18 7.264 127.246 7.5 127.246 7.788C127.246 8.028 127.19 8.242 127.078 8.43C126.97 8.618 126.808 8.766 126.592 8.874C126.38 8.978 126.124 9.03 125.824 9.03C125.372 9.03 125.004 8.916 124.72 8.688C124.436 8.46 124.286 8.124 124.27 7.68H125.086C125.094 7.876 125.16 8.034 125.284 8.154C125.412 8.27 125.586 8.328 125.806 8.328C126.01 8.328 126.166 8.272 126.274 8.16C126.386 8.044 126.442 7.896 126.442 7.716C126.442 7.476 126.366 7.304 126.214 7.2C126.062 7.096 125.826 7.044 125.506 7.044H125.332V6.354H125.506C126.074 6.354 126.358 6.164 126.358 5.784C126.358 5.612 126.306 5.478 126.202 5.382C126.102 5.286 125.956 5.238 125.764 5.238C125.576 5.238 125.43 5.29 125.326 5.394C125.226 5.494 125.168 5.622 125.152 5.778H124.33Z" fill="#7F2828"/>
<path d="M168.282 8.148V7.488L170.244 4.68H171.222V7.416H171.75V8.148H171.222V9H170.382V8.148H168.282ZM170.436 5.58L169.206 7.416H170.436V5.58Z" fill="#7F2828"/>
<path fill-rule="evenodd" clip-rule="evenodd" d="M220.927 5.57322C221.024 5.67085 221.024 5.82914 220.927 5.92678L218.604 8.25C218.408 8.44527 218.092 8.44525 217.896 8.25L216.823 7.17677C216.726 7.07915 216.726 6.92085 216.823 6.82322C216.921 6.7256 217.079 6.7256 217.177 6.82322L218.25 7.89645L220.573 5.57322C220.671 5.47559 220.829 5.47559 220.927 5.57322Z" fill="white"/>
</svg>
