<svg width="20" height="20" viewBox="0 0 20 20" fill="none" xmlns="http://www.w3.org/2000/svg">
<path d="M1.66797 11.6667C1.66797 8.524 1.66797 6.95262 2.64428 5.97631C3.62059 5 5.19194 5 8.33464 5H11.668C14.8106 5 16.3821 5 17.3583 5.97631C18.3346 6.95262 18.3346 8.524 18.3346 11.6667C18.3346 14.8093 18.3346 16.3807 17.3583 17.357C16.3821 18.3333 14.8106 18.3333 11.668 18.3333H8.33464C5.19194 18.3333 3.62059 18.3333 2.64428 17.357C1.66797 16.3807 1.66797 14.8093 1.66797 11.6667Z" stroke="#7F2828"/>
<path opacity="0.5" d="M13.3346 5.00033C13.3346 3.42898 13.3346 2.6433 12.8465 2.15515C12.3583 1.66699 11.5726 1.66699 10.0013 1.66699C8.42997 1.66699 7.64428 1.66699 7.15613 2.15515C6.66797 2.6433 6.66797 3.42898 6.66797 5.00033" stroke="#7F2828"/>
<path opacity="0.5" d="M9.9987 14.4441C10.9192 14.4441 11.6654 13.8223 11.6654 13.0553C11.6654 12.2882 10.9192 11.6663 9.9987 11.6663C9.0782 11.6663 8.33203 11.0445 8.33203 10.2774C8.33203 9.51042 9.0782 8.88859 9.9987 8.88859M9.9987 14.4441C9.0782 14.4441 8.33203 13.8223 8.33203 13.0553M9.9987 14.4441V14.9997M9.9987 8.88859V8.33301M9.9987 8.88859C10.9192 8.88859 11.6654 9.51042 11.6654 10.2774" stroke="#7F2828" stroke-linecap="round"/>
</svg>
